<svg fill="none" xmlns="http://www.w3.org/2000/svg">
<symbol id="burger">
    <rect width="44" height="3" fill="currentColor"/>
    <rect y="7" width="44" height="3" fill="currentColor"/>
    <rect y="14" width="44" height="3" fill="currentColor"/>
</symbol>
<symbol id="cross">
    <path d="M18 6L6 18M6 6L18 18" stroke="currentColor" stroke-width="2" stroke-linecap="round" stroke-linejoin="miter-clip"/>
</symbol>
<symbol id="analysis">
    <path d="M61.2502 58.3333H58.3335V14.5833C58.3335 13.8097 58.0262 13.0678 57.4792 12.5209C56.9322 11.9739 56.1904 11.6666 55.4168 11.6666C54.6433 11.6666 53.9014 11.9739 53.3544 12.5209C52.8075 13.0678 52.5002 13.8097 52.5002 14.5833V58.3333H46.6668V26.2499C46.6668 25.4764 46.3595 24.7345 45.8126 24.1875C45.2656 23.6405 44.5237 23.3333 43.7502 23.3333C42.9766 23.3333 42.2347 23.6405 41.6878 24.1875C41.1408 24.7345 40.8335 25.4764 40.8335 26.2499V58.3333H35.0002V37.9166C35.0002 37.143 34.6929 36.4012 34.1459 35.8542C33.5989 35.3072 32.857 34.9999 32.0835 34.9999C31.3099 34.9999 30.5681 35.3072 30.0211 35.8542C29.4741 36.4012 29.1668 37.143 29.1668 37.9166V58.3333H23.3335V49.5833C23.3335 48.8097 23.0262 48.0678 22.4792 47.5209C21.9322 46.9739 21.1904 46.6666 20.4168 46.6666C19.6433 46.6666 18.9014 46.9739 18.3544 47.5209C17.8075 48.0678 17.5002 48.8097 17.5002 49.5833V58.3333H11.6668V8.74992C11.6668 7.97637 11.3595 7.2345 10.8126 6.68752C10.2656 6.14054 9.52371 5.83325 8.75016 5.83325C7.97661 5.83325 7.23475 6.14054 6.68777 6.68752C6.14079 7.2345 5.8335 7.97637 5.8335 8.74992V61.2499C5.8335 62.0235 6.14079 62.7653 6.68777 63.3123C7.23475 63.8593 7.97661 64.1666 8.75016 64.1666H61.2502C62.0237 64.1666 62.7656 63.8593 63.3126 63.3123C63.8595 62.7653 64.1668 62.0235 64.1668 61.2499C64.1668 60.4764 63.8595 59.7345 63.3126 59.1875C62.7656 58.6405 62.0237 58.3333 61.2502 58.3333Z" fill="currentColor"/>
</symbol>
<symbol id="growth">
    <path d="M63.9333 19.3083C63.6374 18.5956 63.071 18.0293 62.3583 17.7333C62.0077 17.5839 61.6311 17.5046 61.25 17.5H46.6667C45.8931 17.5 45.1512 17.8073 44.6043 18.3543C44.0573 18.9013 43.75 19.6431 43.75 20.4167C43.75 21.1902 44.0573 21.9321 44.6043 22.4791C45.1512 23.026 45.8931 23.3333 46.6667 23.3333H54.2208L37.9167 39.6375L28.3208 30.0125C28.0497 29.7391 27.7271 29.5221 27.3717 29.3741C27.0162 29.226 26.635 29.1498 26.25 29.1498C25.865 29.1498 25.4837 29.226 25.1283 29.3741C24.7729 29.5221 24.4503 29.7391 24.1792 30.0125L6.67915 47.5125C6.40578 47.7836 6.18879 48.1062 6.04072 48.4617C5.89264 48.8171 5.81641 49.1983 5.81641 49.5833C5.81641 49.9684 5.89264 50.3496 6.04072 50.705C6.18879 51.0604 6.40578 51.383 6.67915 51.6542C6.95029 51.9275 7.27288 52.1445 7.6283 52.2926C7.98373 52.4407 8.36495 52.5169 8.74998 52.5169C9.13502 52.5169 9.51624 52.4407 9.87167 52.2926C10.2271 52.1445 10.5497 51.9275 10.8208 51.6542L26.25 36.1958L35.8458 45.8208C36.117 46.0942 36.4395 46.3112 36.795 46.4593C37.1504 46.6073 37.5316 46.6836 37.9167 46.6836C38.3017 46.6836 38.6829 46.6073 39.0383 46.4593C39.3938 46.3112 39.7163 46.0942 39.9875 45.8208L58.3333 27.4458V35C58.3333 35.7736 58.6406 36.5154 59.1876 37.0624C59.7346 37.6094 60.4764 37.9167 61.25 37.9167C62.0235 37.9167 62.7654 37.6094 63.3124 37.0624C63.8594 36.5154 64.1667 35.7736 64.1667 35V20.4167C64.162 20.0355 64.0828 19.659 63.9333 19.3083Z" fill="currentColor"/>
</symbol>
<symbol id="profit">
    <path d="M24.5 31.5C24.5 29.6435 25.2375 27.863 26.5503 26.5503C27.863 25.2375 29.6435 24.5 31.5 24.5C33.3565 24.5 35.137 25.2375 36.4497 26.5503C37.7625 27.863 38.5 29.6435 38.5 31.5C38.5 33.3565 37.7625 35.137 36.4497 36.4497C35.137 37.7625 33.3565 38.5 31.5 38.5C29.6435 38.5 27.863 37.7625 26.5503 36.4497C25.2375 35.137 24.5 33.3565 24.5 31.5ZM31.5 28C30.5717 28 29.6815 28.3687 29.0251 29.0251C28.3687 29.6815 28 30.5717 28 31.5C28 32.4283 28.3687 33.3185 29.0251 33.9749C29.6815 34.6313 30.5717 35 31.5 35C32.4283 35 33.3185 34.6313 33.9749 33.9749C34.6313 33.3185 35 32.4283 35 31.5C35 30.5717 34.6313 29.6815 33.9749 29.0251C33.3185 28.3687 32.4283 28 31.5 28ZM12.25 14C10.8576 14 9.52226 14.5531 8.53769 15.5377C7.55312 16.5223 7 17.8576 7 19.25V43.75C7 45.1424 7.55312 46.4777 8.53769 47.4623C9.52226 48.4469 10.8576 49 12.25 49H50.75C52.1424 49 53.4777 48.4469 54.4623 47.4623C55.4469 46.4777 56 45.1424 56 43.75V19.25C56 17.8576 55.4469 16.5223 54.4623 15.5377C53.4777 14.5531 52.1424 14 50.75 14H12.25ZM10.5 19.25C10.5 18.7859 10.6844 18.3408 11.0126 18.0126C11.3408 17.6844 11.7859 17.5 12.25 17.5H17.5V21C17.5 21.9283 17.1313 22.8185 16.4749 23.4749C15.8185 24.1313 14.9283 24.5 14 24.5H10.5V19.25ZM10.5 28H14C15.8565 28 17.637 27.2625 18.9497 25.9497C20.2625 24.637 21 22.8565 21 21V17.5H42V21C42 22.8565 42.7375 24.637 44.0503 25.9497C45.363 27.2625 47.1435 28 49 28H52.5V35H49C47.1435 35 45.363 35.7375 44.0503 37.0503C42.7375 38.363 42 40.1435 42 42V45.5H21V42C21 40.1435 20.2625 38.363 18.9497 37.0503C17.637 35.7375 15.8565 35 14 35H10.5V28ZM45.5 17.5H50.75C51.2141 17.5 51.6592 17.6844 51.9874 18.0126C52.3156 18.3408 52.5 18.7859 52.5 19.25V24.5H49C48.0717 24.5 47.1815 24.1313 46.5251 23.4749C45.8688 22.8185 45.5 21.9283 45.5 21V17.5ZM52.5 38.5V43.75C52.5 44.2141 52.3156 44.6593 51.9874 44.9874C51.6592 45.3156 51.2141 45.5 50.75 45.5H45.5V42C45.5 41.0717 45.8688 40.1815 46.5251 39.5251C47.1815 38.8687 48.0717 38.5 49 38.5H52.5ZM17.5 45.5H12.25C11.7859 45.5 11.3408 45.3156 11.0126 44.9874C10.6844 44.6593 10.5 44.2141 10.5 43.75V38.5H14C14.9283 38.5 15.8185 38.8687 16.4749 39.5251C17.1313 40.1815 17.5 41.0717 17.5 42V45.5ZM59.5 43.75C59.5 46.0706 58.5781 48.2962 56.9372 49.9372C55.2962 51.5781 53.0706 52.5 50.75 52.5H14.2975C14.6595 53.524 15.3303 54.4105 16.2173 55.0374C17.1043 55.6643 18.1639 56.0006 19.25 56H50.75C53.9989 56 57.1147 54.7094 59.4121 52.4121C61.7094 50.1147 63 46.9989 63 43.75V26.25C63.0006 25.1639 62.6643 24.1043 62.0374 23.2173C61.4105 22.3303 60.524 21.6595 59.5 21.2975V43.75Z" fill="currentColor"/>
</symbol>
<symbol id="mail">
    <path d="M21.5 18L14.8571 12M9.14286 12L2.50003 18M2 7L10.1649 12.7154C10.8261 13.1783 11.1567 13.4097 11.5163 13.4993C11.8339 13.5785 12.1661 13.5785 12.4837 13.4993C12.8433 13.4097 13.1739 13.1783 13.8351 12.7154L22 7M6.8 20H17.2C18.8802 20 19.7202 20 20.362 19.673C20.9265 19.3854 21.3854 18.9265 21.673 18.362C22 17.7202 22 16.8802 22 15.2V8.8C22 7.11984 22 6.27976 21.673 5.63803C21.3854 5.07354 20.9265 4.6146 20.362 4.32698C19.7202 4 18.8802 4 17.2 4H6.8C5.11984 4 4.27976 4 3.63803 4.32698C3.07354 4.6146 2.6146 5.07354 2.32698 5.63803C2 6.27976 2 7.11984 2 8.8V15.2C2 16.8802 2 17.7202 2.32698 18.362C2.6146 18.9265 3.07354 19.3854 3.63803 19.673C4.27976 20 5.11984 20 6.8 20Z" stroke="currentColor" stroke-width="2" stroke-linecap="round" stroke-linejoin="round"/>
</symbol>
<symbol id="phone">
    <path d="M14.0497 6C15.0264 6.19057 15.924 6.66826 16.6277 7.37194C17.3314 8.07561 17.8091 8.97326 17.9997 9.95M14.0497 2C16.0789 2.22544 17.9713 3.13417 19.4159 4.57701C20.8606 6.01984 21.7717 7.91101 21.9997 9.94M10.2266 13.8631C9.02506 12.6615 8.07627 11.3028 7.38028 9.85323C7.32041 9.72854 7.29048 9.66619 7.26748 9.5873C7.18576 9.30695 7.24446 8.96269 7.41447 8.72526C7.46231 8.65845 7.51947 8.60129 7.63378 8.48698C7.98338 8.13737 8.15819 7.96257 8.27247 7.78679C8.70347 7.1239 8.70347 6.26932 8.27247 5.60643C8.15819 5.43065 7.98338 5.25585 7.63378 4.90624L7.43891 4.71137C6.90747 4.17993 6.64174 3.91421 6.35636 3.76987C5.7888 3.4828 5.11854 3.4828 4.55098 3.76987C4.2656 3.91421 3.99987 4.17993 3.46843 4.71137L3.3108 4.86901C2.78117 5.39863 2.51636 5.66344 2.31411 6.02348C2.08969 6.42298 1.92833 7.04347 1.9297 7.5017C1.93092 7.91464 2.01103 8.19687 2.17124 8.76131C3.03221 11.7947 4.65668 14.6571 7.04466 17.045C9.43264 19.433 12.295 21.0575 15.3284 21.9185C15.8928 22.0787 16.1751 22.1588 16.588 22.16C17.0462 22.1614 17.6667 22 18.0662 21.7756C18.4263 21.5733 18.6911 21.3085 19.2207 20.7789L19.3783 20.6213C19.9098 20.0898 20.1755 19.8241 20.3198 19.5387C20.6069 18.9712 20.6069 18.3009 20.3198 17.7333C20.1755 17.448 19.9098 17.1822 19.3783 16.6508L19.1835 16.4559C18.8339 16.1063 18.6591 15.9315 18.4833 15.8172C17.8204 15.3862 16.9658 15.3862 16.3029 15.8172C16.1271 15.9315 15.9523 16.1063 15.6027 16.4559C15.4884 16.5702 15.4313 16.6274 15.3644 16.6752C15.127 16.8453 14.7828 16.904 14.5024 16.8222C14.4235 16.7992 14.3612 16.7693 14.2365 16.7094C12.7869 16.0134 11.4282 15.0646 10.2266 13.8631Z" stroke="currentColor" stroke-width="2" stroke-linecap="round" stroke-linejoin="round"/>
</symbol>
<symbol id="geo">
    <path d="M12 13C13.6569 13 15 11.6569 15 10C15 8.34315 13.6569 7 12 7C10.3431 7 9 8.34315 9 10C9 11.6569 10.3431 13 12 13Z" stroke="currentColor" stroke-width="2" stroke-linecap="round" stroke-linejoin="round"/>
    <path d="M12 22C16 18 20 14.4183 20 10C20 5.58172 16.4183 2 12 2C7.58172 2 4 5.58172 4 10C4 14.4183 8 18 12 22Z" stroke="currentColor" stroke-width="2" stroke-linecap="round" stroke-linejoin="round"/>
</symbol>
</svg>


